<svg viewBox="0 0 29 31" xmlns="http://www.w3.org/2000/svg">
  <g fill="#4D6FB4" fill-rule="evenodd">
    <path d="M27.94 2.042c-.023-.511-.392-.94-.856-.975L25.92.972 24.362.484c-.214-.059-.404-.059-.595-.059L12.39.342c-.57 0-1.034.463-1.046 1.022L11.2 6.893a4.285 4.285 0 0 0-1.426-.464c-1.023-.154-2.033.036-2.842.547-.809.488-1.32 1.213-1.486 2.057l-1.95-.095c-.345-.024-.69.25-.749.618L.821 24.644c-.06.38.202.725.583.796l7.193 1.201c-.012.452-.012.975-.012 1.58 0 .477.345.893.82.976l8.715 1.558a1.91 1.91 0 0 0 1.474-.321l.143-.095c.452-.322.915-.642 1.32-.702.392-.083.76-.012 1.153.048l.25.047a.658.658 0 0 0 .535-.154.655.655 0 0 0 .237-.512v-2.924l.452.083c.119.023.238.023.357.023.356 0 .666-.095.915-.297.214-.178.428-.356.63-.535.405-.356.785-.69 1.225-.95.32-.203.666-.346 1.022-.5.19-.072.369-.155.547-.238.333-.154.535-.523.524-.951L27.94 2.042zm-.665.036l.94 20.45v.002l-1.463-1.036-.58-19.832.853.071c.143.012.238.19.25.345zm-1.784-.547l.003.001.587 20.06-1.731 3.291V1.198l1.141.333zm-2.936 24.503l.012 3.032-.238-.047c-.44-.072-.892-.154-1.391-.048-.547.084-1.082.452-1.593.809l-.143.095c-.024.012-.048.035-.072.047-.047-2.473 0-3.733.072-4.47 0-.119.012-.238.036-.333.011-.13.023-.25.047-.345.012-.071.024-.142.036-.202.035-.13.047-.25.07-.38.06-.607 1.273-9.084 1.57-11.176.024.012.06.024.084.036a.61.61 0 0 1 .356.51c.56 5.22 1.154 11.034 1.154 11.652v.821zM9.263 28.222c0-.559 0-1.046.011-1.462a1.67 1.67 0 0 1 0-.345v-.357c.024-1.795.072-2.02.167-2.449.047-.202.202-.963.404-1.95.345-1.688.844-4.173 1.094-5.278.024-.12.047-.226.071-.31.179-.76.274-1.402.321-1.819.036-.32.048-.51.048-.535v-.963c0-.095.024-.154.095-.226a.288.288 0 0 1 .214-.083h.024l2.092.095.666.024 1.367.071.333.013.357.011 3.685.167c.036 0 .072 0 .096.011-.286 1.95-1.523 10.641-1.593 11.271a3.6 3.6 0 0 1-.048.345c-.012.072-.024.131-.036.214-.024.095-.035.202-.06.333-.011.095-.023.214-.035.333-.083.773-.13 2.105-.071 4.78-.072 0-.155-.012-.226-.024l-8.715-1.557a.308.308 0 0 1-.261-.31zM7.277 7.547a3.543 3.543 0 0 1 1.82-.5c.19 0 .38.024.57.048a3.737 3.737 0 0 1 1.51.57c.119.072.226.144.32.239.12.095.239.202.334.32.309.333.51.726.606 1.154l-.404-.024a4.333 4.333 0 0 0-.226-.404 2.849 2.849 0 0 0-.321-.428 2.04 2.04 0 0 0-.321-.321 3.127 3.127 0 0 0-1.474-.726c-1.296-.25-2.569.405-3.163 1.605l-.404-.011c.154-.619.559-1.154 1.153-1.522zm3.852 1.76l-3.84-.179c.499-.761 1.38-1.165 2.27-.987.631.12 1.19.488 1.57 1.023v.143zm-5.434.404c.013.011.013.011.024.011l1.011.048h.012l4.375.214.333.024.333.012 1.022.047h.013s0 .012.011.012c.012 0 .012 0 .024-.012l1.177.06-.166 1.736-2.129-.096c-.118 0-.225.012-.332.048a.76.76 0 0 0-.345.19c-.012.012-.036.024-.048.036a.962.962 0 0 0-.31.713v.951c0 .012-.046.952-.344 2.2-.202.88-.76 3.626-1.177 5.624-.19.975-.345 1.735-.392 1.938-.095.451-.155.713-.19 2.484l-7.11-1.224L3.46 9.603l2.235.108zm8.846 2.187l.155-1.736.951.024.13 1.76-1.236-.048zm8.691 13.566v-.25c0-.808-.892-9.178-1.165-11.734-.047-.452-.309-.832-.797-1.07a2.374 2.374 0 0 0-1.034-.262l-3.769-.167-.142-1.842a.732.732 0 0 0-.714-.666h-1.2l-1.273-.06c-.142-.82-.606-1.557-1.284-2.092l.155-5.945a.388.388 0 0 1 .38-.356l11.295.083v24.432l-.452-.071zm4.34-2.116c-.369.154-.75.32-1.106.535-.487.297-.915.666-1.32 1.022-.023.024-.059.048-.083.072h-.001l1.478-2.808 1.426 1.011-.002.001c-.13.06-.261.119-.392.167z"/>
    <path d="M20.866 1.793c-.642 0-1.153.523-1.153 1.165 0 .261.095.51.238.701-.56.642-.654 1.355-.725 1.95-.12.998-.202 1.605-2.354 1.605-1.903 0-2.247-.393-2.271-3.163.475-.13.82-.582.82-1.093 0-.642-.511-1.165-1.153-1.165s-1.153.523-1.153 1.165c0 .51.345.963.82 1.093.024 2.783.368 3.84 2.937 3.84 2.556 0 2.865-.915 3.02-2.199.07-.583.154-1.141.606-1.64h.012c.107.035.225.059.356.059.643 0 1.166-.523 1.166-1.153 0-.642-.523-1.165-1.166-1.165zM13.78 2.958a.49.49 0 0 1 .488-.488.49.49 0 0 1 .487.488.488.488 0 1 1-.975 0zm7.086.475a.487.487 0 0 1-.487-.475.49.49 0 0 1 .487-.488.482.482 0 1 1 0 .963zM13.519 15.43h.012c.012.011.024.011.047.011l.619.024 1.866.083.333.012h.012l.345.024 1.462.06h.048a.927.927 0 0 0 .642-.25.987.987 0 0 0 .32-.666l.013-.285a.959.959 0 0 0-.262-.702.928.928 0 0 0-.666-.31l-1.735-.07-.346-.024-.344-.012-1.474-.06-.678-.035h-.06c-.285-.012-.51.071-.69.25a.938.938 0 0 0-.32.665l-.012.286a.957.957 0 0 0 .868.998zm-.178-1.25c0-.082.035-.153.094-.201a.281.281 0 0 1 .19-.083H13.675l.665.035 1.605.072.333.011.357.024 1.653.072c.07 0 .142.035.201.095.048.06.072.13.072.202l-.012.285a.253.253 0 0 1-.095.202.333.333 0 0 1-.214.072l-1.546-.072-.345-.011-.344-.012-1.748-.084-.654-.023h-.012c-.155-.024-.273-.143-.261-.298l.011-.285z"/>
  </g>
</svg>
