<svg viewBox="0 0 25 26" xmlns="http://www.w3.org/2000/svg">
  <g fill="#4D6FB4" fill-rule="evenodd">
    <path d="M24.461 5.144c-.024-.012-.047-.036-.071-.036L16.614.614c-.017-.01-.037-.008-.055-.014a.279.279 0 0 0-.067-.017.34.34 0 0 0-.204.026c-.004.002-.009 0-.013.002l-.005.003L.183 9.9a.315.315 0 0 0-.14.19.266.266 0 0 0-.01.045c-.004.02-.016.04-.016.062l.001.005V20.752c0 .12.064.232.169.291l7.853 4.544h.002v.006c.012.012.036.012.06.012.008.003.017.003.026.006.027.007.053.022.08.022a.338.338 0 0 0 .169-.045c.007-.005.01-.013.017-.017l16.067-9.299a.452.452 0 0 0 .13-.13c.009-.024.012-.051.017-.078.002-.014.009-.027.01-.042.002-.012.01-.023.01-.035V5.429a.32.32 0 0 0-.167-.285zm-8.013-3.852l7.169 4.137-.844.5h-.012l-.32.19h-.013l-.333.19-.63.369h-.012l-.202.118-.333.203h-.012l-.107.071h-.012l-.214.119-.844.5h-.012l-.32.19h-.012l-.333.19-.821.487h-.012l-.535-.297.844-.488.333-.202.333-.19.856-.487.214-.131.12-.072.344-.19.202-.119.642-.368.21-.128.167-.096.003-.002h.001l.002-.002c.012-.007.017-.02.028-.027.027-.022.055-.044.075-.075a.33.33 0 0 0 .066-.189.337.337 0 0 0-.169-.292l-1.241-.716-.007-.001-3.242-1.872a66.461 66.461 0 0 0-.886-.511c-.002-.002-.004-.001-.006-.002v-.001a.334.334 0 0 0-.327 0c-.004.001-.008 0-.012.002l-4.72 2.723-.606-.333.168-.097 5.372-3.101zm-.107 2.393h.039c.386 0 .753-.125 1.024-.335l2.723 1.572c-.127.374-.13.771-.007 1.14l-.082.045-.332.19-.12.071-.213.131-.857.488-.332.19-.333.202-.63.357-.226.13-4.792-2.65 3.203-1.855c.245.2.572.316.935.323zm-.259-.716l.327-.19c.114.065.211.12.312.18a.997.997 0 0 1-.366.052 1.033 1.033 0 0 1-.273-.042zm4.632 2.754c-.03-.15-.03-.306.004-.458l.39.225-.214.13-.18.103zM7.872 24.711l-7.18-4.154v-.98l7.18 4.154v.98zm0-1.759l-7.18-4.154v-.98l7.18 4.154v.98zm0-1.759l-7.18-4.155v-.98l7.18 4.154v.981zm0-1.76L.692 15.28v-.98l7.18 4.154v.98zm0-1.758L.692 13.52v-.98l7.18 4.154v.98zm0-1.76L.692 11.76v-.98l4.082 2.361.141.087.844.487.345.202.333.19.844.488.345.202.245.14v.977zm.337-1.569l-.238-.143-.856-.487-.333-.19-.345-.202-.844-.488-.298-.17-.068-.04-.312-.182-.844-.488-.179-.102-.445-.257-.053-.033-.239-.143-.606-.344-.067-.039-.586-.339-.025-.015-.623-.36-.22-.127L7.84 6.26l.605.345L3.662 9.37c-.29.163-.54.307-.9.517a.336.336 0 0 0 0 .583l.001.001.083.048.038.022.542.314.36.21.115.064.396.23h.005l.066.04.084.047.25.155.843.487.333.19.345.203.808.466c.272.16.48.28.703.407l.01.006.393.226c.06.024.119.048.167.048.06 0 .119-.024.178-.048l4.565-2.64.856-.498.69-.405.523.297-.666.405h-.011l-.857.499-5.373 3.103zm5.694-4.684l-.689.392-.856.5-2.696 1.565c-.337-.292-.798-.462-1.32-.464h-.008c-.532 0-1.027.178-1.374.467l-.06-.035-.344-.202-.333-.19-.844-.488-.25-.154-.095-.048-.177-.1c.12-.467.121-.977.001-1.455l2.72-1.571.868-.5.678-.392 4.78 2.675zm-4.875 2.825l-.412.24-.308.177-.515-.294-.06-.035-.137-.08a1.67 1.67 0 0 1 .738-.166h.005c.26.001.497.056.69.158zM4.255 9.808c.04.247.038.504-.001.745l-.397-.237-.247-.142c.208-.12.401-.23.645-.366zm11.218 10.887v.012l-6.928 4.005v-.975l6.928-4.005v.963zm0-1.748l-6.928 4.005v-.975l1.162-.676 5.766-3.329v.975zm0-1.76l-6.928 4.005v-.974l6.928-4.005v.975zm0-1.759l-6.928 4.005v-.975l6.928-4.005v.975zm0-1.76l-6.928 4.005v-.975l6.928-4.005v.976zm0-1.76l-.345.191v.012l-6.583 3.802v-.974l5.727-3.316.856-.499.345-.19v.975zm2.259 7.479v.012l-1.403.809v-.975l1.403-.809v.963zm0-1.76v.013l-1.403.808v-.975l1.403-.82v.975zm0-1.77l-1.189.713-.214.118v-.974l1.403-.809v.951zm0-1.749v.012l-1.189.69-.214.119v-.976l1.403-.808v.963zm0-1.748l-.095.06-.095.06h-.012l-1.201.69v-.976l.357-.202.071-.047.261-.155.333-.19h.012l.286-.166.083-.048v.975zm0-2.746v.987l-.095.06-.095.06h-.012l-.131.07-.713.416-.357.202v-1.367l-.333-.19h-.012l-.535-.297-.559-.321-.13-.072-4.768-2.675-.69-.38-.601-.342.832-.48.578-.332.595.345h.011l.678.38 4.768 2.676.689.38.88.5v.38zm6.23 6.17h-.012l-.333.203-5.053 2.925v-.976l4.209-2.436.345-.19.332-.203.512-.297v.975zm0-1.759h-.012l-.333.202-.844.488-.333.202h-.012l-.32.19h-.013l-3.53 2.045v-.975l1.7-.987 2.71-1.569.274-.155.713-.416v.975zm0-1.76l-.131.084-.214.119-1.177.69-3.876 2.234v-.975l1.665-.962.035-.024 2.758-1.593.227-.131.713-.416v.974zm0-1.759l-.131.083-.214.12-1.177.689-3.876 2.235v-.975l.024-.012.297-.167.535-.32.31-.179.332-.19h.012l.155-.095.035-.024.048-.023.095-.048.06-.048.106-.06h.012l.666-.392.333-.19h.012l.333-.202.142-.083h.012l.69-.404.202-.12.143-.07.13-.084.202-.119.512-.297v.975zm0-1.748l-.167.095-.677.393-.202.118-.131.084-.143.071-.202.12h-.012l-.32.19h-.013l-.226.142-.38.226h-.024l-.214.13-.333.19-.119.072h-.012l-.083.048v.012l-.119.071h-.012l-.547.309-.297.178h-.012l-.32.19-.144.084-.178.107-.011.012h-.012l-.452.262-.036.011v-.975l.024-.012.297-.166.535-.321.31-.178.332-.19h.012l.155-.096.035-.023.048-.024.095-.048.06-.047.106-.06h.012l.666-.392.333-.19h.012l.333-.203.142-.083h.012l.69-.404.202-.119.143-.071.13-.083.202-.12.512-.296v.986zm0-1.76l-.167.096-.677.392-.202.12-.131.082-.143.072-.202.119h-.012l-.32.19h-.013l-.31.19-.308.178h-.024l-.202.131-.333.19-.119.072h-.012l-.083.047v.012l-.119.071h-.012l-.547.31-.297.178h-.012l-.32.19-.144.083-.178.107-.011.012h-.012l-.452.262-.036.012v-.975l.31-.179h.011l.844-.5.333-.19h.012l.155-.094.178-.096V8.07l.178-.095V7.96l.666-.38.333-.19h.012l.333-.202.154-.083.69-.405.345-.19.32-.19v-.012l.524-.297v.987z"/>
    <path d="M7.749 8.488l-.147-.086a.337.337 0 1 0-.341.582l.152.089c-.06.216-.087.438-.033.645.07.268.233.488.458.62.576.338 1.006.05 1.307-.248l.667.391c-.124.066-.256.083-.362.022a.337.337 0 0 0-.341.58c.152.09.32.132.49.132.298 0 .603-.13.84-.366l.133.079a.338.338 0 0 0 .341-.582l-.142-.084c.153-.51.005-1.047-.418-1.296-.599-.349-1.032-.037-1.331.27l-.668-.392c.044-.026.086-.057.133-.068a.33.33 0 0 1 .252.025.337.337 0 0 0 .341-.58 1.001 1.001 0 0 0-.764-.098c-.217.057-.404.196-.567.365zm2.262 1.06c.112.065.16.204.154.359l-.534-.314c.146-.12.243-.126.38-.046zm-1.478.183c-.133.1-.226.102-.354.026a.326.326 0 0 1-.146-.208c-.01-.036-.002-.076-.004-.114l.504.296z"/>
  </g>
</svg>
