<svg viewBox="0 0 28 26" xmlns="http://www.w3.org/2000/svg">
  <g fill="#4D6FB4" fill-rule="evenodd">
    <path d="M7.514 7.82l3.856 2.611H10.17L7.165 8.398 6.26 9.735l1.028.696H6.09l-.27-.182a.638.638 0 0 1-.138-.86l.946-1.396a.63.63 0 0 1 .406-.27l.018-.002a.64.64 0 0 1 .461.1"/>
    <path d="M10.68.52l15.73 10.648a1.868 1.868 0 0 1 .498 2.586l-2.182 3.224v-3.574c0-.296-.043-.583-.124-.852l1.582 1.07.166-.245a1.19 1.19 0 0 0 .181-.893 1.187 1.187 0 0 0-.463-.736l-.034-.022L10.303 1.079A1.19 1.19 0 0 0 9.41.898a1.188 1.188 0 0 0-.736.462l-.182.287 12.977 8.784h-6.876L6.34 4.98c-1.41 2.156-2.989 4.498-3.52 5.03a1.18 1.18 0 0 0-.182.44 2.931 2.931 0 0 0-.694.179c.007-.345.11-.69.317-.995l5.831-8.616A1.868 1.868 0 0 1 10.68.52zm-.589 6.507l2.171-2.302-.673-.456L9.417 6.57l.674.457zm.51-3.426L8.756 4.945l.743-1.75s.13-.252-.162-.45l-1.06-.718-.043.035c.142.142.41.568.504.773l-.935 2.643.701.475 2.822-1.861-.725-.49zm3.424 4.754l.553.374.456-1.102-1.009.728zm.122 1.417l.618.418 1.212-2.95-.541-.367c-.25-.17-.442-.018-.442-.018L12.37 8.57l.702.475.4-.29.856.58-.18.438zm-.395-3.132l.472-.49s-.22-.314-.53-.523c-.334-.226-1.226-.617-1.706.093-.452.668.473 1.307.236 1.658-.238.35-1.03-.277-1.156-.685l-.493.512s.201.35.66.66c.46.312 1.314.543 1.752-.104.456-.672-.442-1.371-.244-1.664.198-.292.829.19 1.01.543z"/>
    <path d="M4.895 22.887h1.008l.278-.005.149-.015c.065-.012.123-.027.174-.046a.606.606 0 0 0 .121-.056l.01-.006a.386.386 0 0 0 .07-.06.62.62 0 0 0 .074-.11l.008-.013a.513.513 0 0 0 .04-.115.759.759 0 0 0-.006-.357.5.5 0 0 0-.178-.257.523.523 0 0 0-.15-.075l-.02-.007a1.44 1.44 0 0 0-.248-.047 3.696 3.696 0 0 0-.417-.02h-.913v1.189zm.885-3.496v-.289a.337.337 0 0 1 .674 0v.37l.027.009c.109.036.208.089.296.157l.01.008c.084.067.157.149.217.244l.01.017c.058.095.102.2.131.311a1.337 1.337 0 0 1 .001.67l-.005.019c-.032.115-.081.22-.146.314l-.026.035.072.048a1.17 1.17 0 0 1 .425.61 1.404 1.404 0 0 1 .018.697c-.023.098-.057.19-.103.279l-.01.018a1.109 1.109 0 0 1-.374.416l-.016.012c-.076.047-.16.088-.25.12-.085.03-.178.055-.277.072v.319a.337.337 0 0 1-.674 0v-.286h-.335v.286a.337.337 0 0 1-.674 0v-.286h-.213a.337.337 0 0 1-.337-.337V19.725c0-.186.151-.337.337-.337h.213v-.286a.337.337 0 0 1 .674 0v.286h.145l.19.003zm-.058 1.633c.127 0 .23-.005.31-.013a.982.982 0 0 0 .192-.032.522.522 0 0 0 .14-.066l.016-.01a.362.362 0 0 0 .114-.178l.003-.01a.677.677 0 0 0 .017-.16.682.682 0 0 0-.02-.168.477.477 0 0 0-.054-.13l-.008-.014a.29.29 0 0 0-.064-.071l-.007-.006a.303.303 0 0 0-.09-.046 1.177 1.177 0 0 0-.239-.042 4.91 4.91 0 0 0-.442-.016h-.695v.962H5.722zm-2.733-2.062a3.722 3.722 0 0 1 2.576-1.232 3.72 3.72 0 0 1 2.693.948l.02.019a3.719 3.719 0 0 1 1.213 2.557 3.719 3.719 0 0 1-.949 2.692 3.718 3.718 0 0 1-2.576 1.234 3.719 3.719 0 0 1-2.691-.949 3.715 3.715 0 0 1-1.234-2.576 3.721 3.721 0 0 1 .948-2.693zm2.61-.561a3.05 3.05 0 0 1 2.209.777l.018.015c.617.562.952 1.321.994 2.095a3.055 3.055 0 0 1-2.888 3.22 3.05 3.05 0 0 1-2.209-.777 3.05 3.05 0 0 1-1.011-2.11 3.05 3.05 0 0 1 .777-2.208A3.05 3.05 0 0 1 5.6 18.4zm13.204 3.054c.383 0 .734.132 1.011.354a1.62 1.62 0 1 1 0 2.534 1.62 1.62 0 1 1-1.01-2.888zm-4.28-3.292h7.69a.634.634 0 0 1 .635.634v1.662a.634.634 0 0 1-.634.635h-7.69a.635.635 0 0 1-.635-.635l.003-1.707a.635.635 0 0 1 .632-.589zm7.65.674h-7.61v1.583h7.61v-1.583zM2.488 11.171h19.8c1.068 0 1.94.873 1.94 1.94V23.957c.002 1.067-.872 1.94-1.94 1.94h-19.8a1.947 1.947 0 0 1-1.94-1.94l-.001-6.252v-4.592c0-1.068.873-1.94 1.94-1.941zm5.462 3.855c.018-.117.003-.202-.046-.259-.082-.096-.24-.096-.408-.096H7.43a.078.078 0 0 0-.076.066l-.099.623h.14c.247 0 .503 0 .554-.334zm-.108-.871h-.93a.13.13 0 0 0-.128.109l-.377 2.386a.077.077 0 0 0 .077.09h.444a.13.13 0 0 0 .128-.11l.102-.643a.13.13 0 0 1 .127-.11h.295c.613 0 .967-.296 1.059-.884.041-.257.002-.46-.119-.6-.132-.156-.367-.238-.678-.238zM10 15.883a.384.384 0 0 0-.075-.315.376.376 0 0 0-.297-.122.498.498 0 0 0-.5.429.378.378 0 0 0 .07.313c.067.079.17.12.3.12.257 0 .46-.17.502-.425zm.621-.867h-.445a.077.077 0 0 0-.077.065l-.02.125-.03-.045c-.097-.14-.312-.187-.527-.187-.492 0-.913.373-.995.896a.843.843 0 0 0 .166.684c.136.16.33.227.561.227.397 0 .617-.255.617-.255l-.02.124a.078.078 0 0 0 .077.09h.401a.13.13 0 0 0 .128-.11l.24-1.525a.077.077 0 0 0-.076-.09zm2.373 0h-.447a.13.13 0 0 0-.107.056l-.618.91-.262-.874a.13.13 0 0 0-.124-.093h-.44a.078.078 0 0 0-.073.103l.493 1.447-.464.655a.078.078 0 0 0 .063.123h.447a.13.13 0 0 0 .107-.056l1.489-2.15a.077.077 0 0 0-.064-.122zm1.59.01c.019-.117.004-.202-.045-.259-.082-.096-.24-.096-.408-.096h-.065a.078.078 0 0 0-.076.066l-.098.623h.14c.246 0 .501 0 .552-.334zm-.107-.871h-.93a.13.13 0 0 0-.128.109l-.377 2.386c-.007.047.03.09.077.09h.477a.09.09 0 0 0 .09-.077l.106-.676a.13.13 0 0 1 .128-.11h.294c.613 0 .967-.296 1.06-.884.041-.257.001-.46-.12-.6-.131-.156-.366-.238-.677-.238zm2.16 1.728a.383.383 0 0 0-.076-.315.376.376 0 0 0-.297-.122.499.499 0 0 0-.499.429.38.38 0 0 0 .07.313c.066.079.17.12.3.12.257 0 .46-.17.502-.425zm.621-.867h-.445a.077.077 0 0 0-.077.065l-.02.125-.03-.045c-.097-.14-.312-.187-.527-.187-.492 0-.913.373-.995.896a.841.841 0 0 0 .166.684c.136.16.33.227.562.227.396 0 .616-.255.616-.255l-.02.124c-.007.047.03.09.077.09h.401a.13.13 0 0 0 .128-.11l.241-1.525a.078.078 0 0 0-.077-.09zm.525-.796l-.382 2.43a.077.077 0 0 0 .077.09h.384a.13.13 0 0 0 .128-.11l.376-2.386a.078.078 0 0 0-.076-.09h-.43a.078.078 0 0 0-.077.066zM1.22 13.673h22.336v-.561a1.279 1.279 0 0 0-1.27-1.269h-19.8c-.335.002-.64.132-.865.345l-.028.03c-.23.23-.373.546-.373.894v.561zm22.335 4.031v6.252c0 .35-.143.666-.374.894a1.265 1.265 0 0 1-.894.375h-19.8c-.345 0-.663-.144-.894-.375l-.03-.029a1.274 1.274 0 0 1-.346-.865l.002-6.252h22.336z"/>
  </g>
</svg>
