<svg viewBox="0 0 2819 1056" xmlns="http://www.w3.org/2000/svg">
  <g fill="none" fill-rule="evenodd">
    <path d="M119.483 720.89c-11.738 81.08 38.923 156.91 126.034 156.91 84.023 0 142.713-60.06 162.483-135.14 20.39-83.34-13.59-138.89-90.2-162.17l-54.366-16.52c-50.661-15.76-52.514-49.55-49.425-72.07 6.796-47.3 50.66-78.08 91.436-78.08 46.955 0 75.375 33.03 67.955 84.84h57.46C443.83 405.56 393.17 347 315.33 347c-72.284 0-147.039 58.56-158.778 145.65-6.178 45.05-2.471 107.36 84.023 135.14l51.896 16.52c37.069 12.01 70.429 36.03 58.689 92.34-9.88 39.04-42.63 75.83-96.376 75.83-53.749 0-84.022-46.55-77.844-91.59h-57.457zM569.23 693.1c11.3-70.63 72.74-96.05 117.24-96.05 45.2 0 72.75 33.19 62.15 87.58l-32.49 186.45h64.28l33.19-190.69c17.66-93.23-24.72-146.2-107.35-146.2-36.02 0-92.53 16.95-118.66 56.5l40.26-228.83h-64.27l-89.7 509.22h64.27l31.08-177.98zm575.67 177.98h63.56l57.21-329.83h-63.56l-7.77 49.44c-16.25-37.43-60.74-56.5-106.65-56.5-90.4 0-178.69 66.39-197.76 171.62-19.07 104.53 46.62 172.34 137.02 172.34 45.91 0 97.47-20.49 125.72-57.92l-7.77 50.85zm27.54-165.97c-13.41 69.92-69.92 110.18-129.24 110.18-60.04 0-98.88-45.2-87.58-110.18 11.3-64.98 68.51-108.06 127.13-108.06 52.97 0 103.11 37.43 89.69 108.06zm265.78-163.86h-64.27l-87.58 490.16h64.27l37.43-209.77c16.25 38.85 59.33 56.51 105.24 56.51 90.4 0 177.28-66.39 195.64-170.92 19.07-104.53-43.79-173.04-134.19-173.04-45.91 0-96.76 21.19-125.72 58.62l9.18-51.56zm-28.96 166.68c13.42-69.92 69.22-110.88 127.84-110.88 59.33 0 98.17 45.2 86.87 110.88-11.3 65.69-67.09 107.36-125.72 107.36-52.97 0-101.7-36.73-88.99-107.36z" fill="#3F5593" fill-rule="nonzero"/>
    <path d="M1951.71 798.55c-51.87-1.48-89.47-48.36-77.54-120.13l59.06-337.8-58.05-1.65-59.06 337.8c-19.88 112.1 40.42 186.67 123.79 189.04 83.37 2.38 167.58-68.08 187.46-180.18l59.06-337.8-57.43-1.64L2069.94 684c-11.94 71.76-66.35 116.03-118.23 114.55zM2299.33 543.58h-64.98l-88.55 495.61h64.98l37.85-212.1c16.43 39.28 59.99 57.13 106.41 57.13 91.41 0 179.24-67.12 197.81-172.82 19.28-105.69-44.27-174.96-135.68-174.96-46.42 0-97.84 21.43-127.12 59.28l9.28-52.14zm-29.27 168.54c13.56-70.7 69.98-112.12 129.25-112.12 59.99 0 99.27 45.7 87.84 112.12-11.42 66.41-67.84 108.55-127.11 108.55-53.56 0-102.84-37.14-89.98-108.55z" fill="#E78035" fill-rule="nonzero"/>
    <path stroke="#3F5593" stroke-width="27.216" d="M.699 1041.51H2618.71l124.73-698.1"/>
    <path stroke="#E78035" stroke-width="1.361" fill="#E78035" fill-rule="nonzero" d="M2601.14 1054.44l.85-3.17 18.94 3.17z"/>
    <path fill="#E78035" fill-rule="nonzero" d="M2186.5 348l-57.4-1.82 19.79-106.86 59.61-20.82z"/>
    <path fill="#E78035" d="M2818.85.23L2789.5 10.5l-.01-.65-181.95 1018.05h-857.49v27.22h880.28l2-11.22z"/>
    <path fill="#E78035" fill-rule="nonzero" d="M1932.16 345.72l-57.05-1.9.52-3.45.52-2.96L1938 315z"/>
  </g>
</svg>
