<svg viewBox="0 0 29 18" xmlns="http://www.w3.org/2000/svg">
  <g fill="#4D6FB4" fill-rule="evenodd">
    <path d="M27.333 9.066h-.732l-1.726-2.989a1.38 1.38 0 0 0-1.223-.706h-3.53V2.306c0-.672-.472-1.397-1.234-1.397h-8.29a.337.337 0 1 0 0 .673h8.29c.33 0 .56.381.56.724v12.217h-7.583a2.34 2.34 0 0 0-2.306-1.997c-1.177 0-2.14.868-2.306 1.997h-2.32a.343.343 0 0 0-.344.333c0 .19.155.345.345.345h2.319a2.321 2.321 0 0 0 2.306 1.986 2.33 2.33 0 0 0 2.306-1.986h9.643a2.33 2.33 0 0 0 2.306 1.986A2.33 2.33 0 0 0 26.12 15.2h1.213a1.06 1.06 0 0 0 1.058-1.058v-4.03a1.05 1.05 0 0 0-1.058-1.047zM11.176 15.2c-.167.749-.832 1.32-1.617 1.32A1.68 1.68 0 0 1 7.93 15.2a1.628 1.628 0 0 1 0-.678 1.671 1.671 0 0 1 1.63-1.32 1.657 1.657 0 0 1 1.616 1.998zm14.267 0a1.68 1.68 0 0 1-1.629 1.32 1.657 1.657 0 0 1-1.617-1.998c.155-.749.82-1.32 1.617-1.32a1.67 1.67 0 0 1 1.664 1.653c0 .119-.011.238-.035.345zm2.27-1.058c0 .214-.166.38-.38.38h-1.212a2.34 2.34 0 0 0-2.307-1.997 2.34 2.34 0 0 0-2.306 1.997h-1.386V6.045h3.53c.276 0 .502.13.64.369l1.536 2.66a2.52 2.52 0 0 0-.98.242c-.261.13-.51.237-1.046.237h-2.687a.343.343 0 0 0-.345.333c0 .19.155.345.345.345h2.687c.678 0 1.023-.154 1.32-.297.25-.107.44-.202.844-.202h.43l.007.002.008-.002h.922c.214 0 .38.178.38.38v4.03z"/>
    <path d="M5.464 4.421h11.694a.337.337 0 0 0 0-.674H5.464a.337.337 0 1 0 0 .674M8.712 6.404a.337.337 0 0 0 0 .675h7.47a.337.337 0 1 0 0-.675h-7.47zM12.447 9.734a.337.337 0 1 0 0-.675H3.9a.337.337 0 1 0 0 .674h8.548zM.806 9.072a.327.327 0 1 0 .001.654.327.327 0 0 0 0-.654M6.571 1.571a.327.327 0 1 0 0-.653.327.327 0 0 0 0 .653M3.883 7.08h3.544a.337.337 0 1 0 0-.676H3.883a.337.337 0 0 0 0 .675M7.777 1.582h1.49a.337.337 0 1 0 0-.674h-1.49a.337.337 0 0 0 0 .674M4.105 14.538a.324.324 0 0 0 0 .646.324.324 0 0 0 0-.646M4.592 4.084a.337.337 0 0 0-.337-.337H3.51a.337.337 0 1 0 0 .674h.745a.337.337 0 0 0 .337-.337M2.819 9.06H1.765a.337.337 0 1 0 0 .674H2.82a.337.337 0 0 0 0-.675"/>
  </g>
</svg>
